<svg width="57" height="58" viewBox="0 0 57 58" fill="none" xmlns="http://www.w3.org/2000/svg">
<g clip-path="url(#clip0_3_55)">
<path d="M40.046 40.6507C46.5956 34.2757 46.5956 23.7243 40.046 17.3493C33.7622 11.2378 23.6693 11.2378 17.3855 17.3493C10.8337 23.7243 10.8348 34.2746 17.3855 40.6485C23.6693 46.7622 33.7622 46.7622 40.046 40.6507ZM27.9291 38.7095L22.1684 23.8624C21.8546 23.0194 22.9296 22.3278 23.5682 22.9664L28.4959 27.894C28.5545 27.9526 28.634 27.9856 28.7168 27.9856C28.7997 27.9856 28.8792 27.9526 28.9378 27.894L33.8644 22.9675C34.5008 22.3311 35.5697 23.0156 35.2587 23.8569L29.5024 38.7095C29.4431 38.8704 29.3359 39.0093 29.1953 39.1074C29.0546 39.2055 28.8872 39.2581 28.7157 39.2581C28.5442 39.2581 28.3769 39.2055 28.2362 39.1074C28.0955 39.0093 27.9883 38.8704 27.9291 38.7095V38.7095Z" fill="#62B62C"/>
</g>
<defs>
<clipPath id="clip0_3_55">
<rect width="40" height="40" fill="white" transform="translate(57 29) rotate(135)"/>
</clipPath>
</defs>
</svg>
